<mxfile host="Electron" agent="Mozilla/5.0 (Windows NT 10.0; Win64; x64) AppleWebKit/537.36 (KHTML, like Gecko) draw.io/27.0.9 Chrome/134.0.6998.205 Electron/35.4.0 Safari/537.36" version="27.0.9">
  <diagram name="Page-1" id="bSWRKsP8-On0d2oOHUwt">
    <mxGraphModel dx="1348" dy="659" grid="1" gridSize="10" guides="1" tooltips="1" connect="1" arrows="1" fold="1" page="1" pageScale="1" pageWidth="850" pageHeight="1100" math="0" shadow="0">
      <root>
        <mxCell id="0" />
        <mxCell id="1" parent="0" />
        <mxCell id="txIvp467pYTbu5o106aA-1" value="Employee" style="whiteSpace=wrap;html=1;align=center;labelBackgroundColor=none;fillColor=#182E3E;strokeColor=#FFFFFF;fontColor=#FFFFFF;" parent="1" vertex="1">
          <mxGeometry x="163" y="565" width="100" height="40" as="geometry" />
        </mxCell>
        <mxCell id="txIvp467pYTbu5o106aA-3" value="" style="rounded=0;orthogonalLoop=1;jettySize=auto;html=1;strokeColor=#23445D;endArrow=none;startFill=0;labelBackgroundColor=none;fontColor=default;" parent="1" source="txIvp467pYTbu5o106aA-2" target="txIvp467pYTbu5o106aA-1" edge="1">
          <mxGeometry relative="1" as="geometry" />
        </mxCell>
        <mxCell id="txIvp467pYTbu5o106aA-2" value="SSN" style="ellipse;whiteSpace=wrap;html=1;align=center;labelBackgroundColor=none;fillColor=#182E3E;strokeColor=#FFFFFF;fontColor=#FFFFFF;" parent="1" vertex="1">
          <mxGeometry x="3" y="565" width="100" height="40" as="geometry" />
        </mxCell>
        <mxCell id="txIvp467pYTbu5o106aA-4" value="Gander" style="ellipse;whiteSpace=wrap;html=1;align=center;labelBackgroundColor=none;fillColor=#182E3E;strokeColor=#FFFFFF;fontColor=#FFFFFF;" parent="1" vertex="1">
          <mxGeometry x="251" y="465" width="100" height="40" as="geometry" />
        </mxCell>
        <mxCell id="txIvp467pYTbu5o106aA-6" style="rounded=0;orthogonalLoop=1;jettySize=auto;html=1;entryX=0.25;entryY=0;entryDx=0;entryDy=0;strokeColor=#23445D;endArrow=none;startFill=0;labelBackgroundColor=none;fontColor=default;" parent="1" source="txIvp467pYTbu5o106aA-5" target="txIvp467pYTbu5o106aA-1" edge="1">
          <mxGeometry relative="1" as="geometry" />
        </mxCell>
        <mxCell id="txIvp467pYTbu5o106aA-5" value="Birth Date" style="ellipse;whiteSpace=wrap;html=1;align=center;labelBackgroundColor=none;fillColor=#182E3E;strokeColor=#FFFFFF;fontColor=#FFFFFF;" parent="1" vertex="1">
          <mxGeometry x="83" y="465" width="100" height="40" as="geometry" />
        </mxCell>
        <mxCell id="txIvp467pYTbu5o106aA-7" style="rounded=0;orthogonalLoop=1;jettySize=auto;html=1;entryX=0.608;entryY=-0.02;entryDx=0;entryDy=0;entryPerimeter=0;strokeColor=#23445D;endArrow=none;startFill=0;labelBackgroundColor=none;fontColor=default;" parent="1" source="txIvp467pYTbu5o106aA-4" target="txIvp467pYTbu5o106aA-1" edge="1">
          <mxGeometry relative="1" as="geometry" />
        </mxCell>
        <mxCell id="txIvp467pYTbu5o106aA-10" value="" style="rounded=0;orthogonalLoop=1;jettySize=auto;html=1;endArrow=none;startFill=0;labelBackgroundColor=none;strokeColor=#23445D;fontColor=default;" parent="1" source="txIvp467pYTbu5o106aA-9" target="txIvp467pYTbu5o106aA-1" edge="1">
          <mxGeometry relative="1" as="geometry" />
        </mxCell>
        <mxCell id="txIvp467pYTbu5o106aA-9" value="Name" style="ellipse;whiteSpace=wrap;html=1;align=center;labelBackgroundColor=none;fillColor=#182E3E;strokeColor=#FFFFFF;fontColor=#FFFFFF;" parent="1" vertex="1">
          <mxGeometry x="163" y="635" width="100" height="40" as="geometry" />
        </mxCell>
        <mxCell id="txIvp467pYTbu5o106aA-15" style="rounded=0;orthogonalLoop=1;jettySize=auto;html=1;entryX=1;entryY=1;entryDx=0;entryDy=0;strokeColor=#23445D;endArrow=none;startFill=0;labelBackgroundColor=none;fontColor=default;" parent="1" source="txIvp467pYTbu5o106aA-11" target="txIvp467pYTbu5o106aA-9" edge="1">
          <mxGeometry relative="1" as="geometry" />
        </mxCell>
        <mxCell id="txIvp467pYTbu5o106aA-11" value="LName" style="ellipse;whiteSpace=wrap;html=1;align=center;labelBackgroundColor=none;fillColor=#182E3E;strokeColor=#FFFFFF;fontColor=#FFFFFF;" parent="1" vertex="1">
          <mxGeometry x="213" y="705" width="100" height="40" as="geometry" />
        </mxCell>
        <mxCell id="txIvp467pYTbu5o106aA-14" style="rounded=0;orthogonalLoop=1;jettySize=auto;html=1;entryX=0;entryY=1;entryDx=0;entryDy=0;strokeColor=#23445D;endArrow=none;startFill=0;labelBackgroundColor=none;fontColor=default;" parent="1" source="txIvp467pYTbu5o106aA-13" target="txIvp467pYTbu5o106aA-9" edge="1">
          <mxGeometry relative="1" as="geometry" />
        </mxCell>
        <mxCell id="txIvp467pYTbu5o106aA-13" value="FName" style="ellipse;whiteSpace=wrap;html=1;align=center;labelBackgroundColor=none;fillColor=#182E3E;strokeColor=#FFFFFF;fontColor=#FFFFFF;" parent="1" vertex="1">
          <mxGeometry x="113" y="705" width="100" height="40" as="geometry" />
        </mxCell>
        <mxCell id="txIvp467pYTbu5o106aA-32" value="Department" style="whiteSpace=wrap;html=1;align=center;labelBackgroundColor=none;fillColor=#182E3E;strokeColor=#FFFFFF;fontColor=#FFFFFF;" parent="1" vertex="1">
          <mxGeometry x="617" y="565" width="100" height="40" as="geometry" />
        </mxCell>
        <mxCell id="txIvp467pYTbu5o106aA-36" value="" style="rounded=0;orthogonalLoop=1;jettySize=auto;html=1;endArrow=none;startFill=0;labelBackgroundColor=none;strokeColor=#23445D;fontColor=default;" parent="1" source="txIvp467pYTbu5o106aA-33" target="txIvp467pYTbu5o106aA-32" edge="1">
          <mxGeometry relative="1" as="geometry" />
        </mxCell>
        <mxCell id="txIvp467pYTbu5o106aA-33" value="DName" style="ellipse;whiteSpace=wrap;html=1;align=center;labelBackgroundColor=none;fillColor=#182E3E;strokeColor=#FFFFFF;fontColor=#FFFFFF;" parent="1" vertex="1">
          <mxGeometry x="617" y="645" width="100" height="40" as="geometry" />
        </mxCell>
        <mxCell id="txIvp467pYTbu5o106aA-37" value="" style="rounded=0;orthogonalLoop=1;jettySize=auto;html=1;endArrow=none;startFill=0;labelBackgroundColor=none;strokeColor=#23445D;fontColor=default;" parent="1" source="txIvp467pYTbu5o106aA-34" target="txIvp467pYTbu5o106aA-32" edge="1">
          <mxGeometry relative="1" as="geometry" />
        </mxCell>
        <mxCell id="txIvp467pYTbu5o106aA-34" value="Location" style="ellipse;whiteSpace=wrap;html=1;align=center;labelBackgroundColor=none;fillColor=#182E3E;strokeColor=#FFFFFF;fontColor=#FFFFFF;" parent="1" vertex="1">
          <mxGeometry x="747" y="565" width="100" height="40" as="geometry" />
        </mxCell>
        <mxCell id="txIvp467pYTbu5o106aA-38" value="" style="rounded=0;orthogonalLoop=1;jettySize=auto;html=1;endArrow=none;startFill=0;labelBackgroundColor=none;strokeColor=#23445D;fontColor=default;" parent="1" source="txIvp467pYTbu5o106aA-35" target="txIvp467pYTbu5o106aA-32" edge="1">
          <mxGeometry relative="1" as="geometry" />
        </mxCell>
        <mxCell id="txIvp467pYTbu5o106aA-35" value="DNum" style="ellipse;whiteSpace=wrap;html=1;align=center;fontStyle=4;labelBackgroundColor=none;fillColor=#182E3E;strokeColor=#FFFFFF;fontColor=#FFFFFF;" parent="1" vertex="1">
          <mxGeometry x="617" y="485" width="100" height="40" as="geometry" />
        </mxCell>
        <mxCell id="txIvp467pYTbu5o106aA-41" value="Project" style="whiteSpace=wrap;html=1;align=center;labelBackgroundColor=none;fillColor=#182E3E;strokeColor=#FFFFFF;fontColor=#FFFFFF;" parent="1" vertex="1">
          <mxGeometry x="401" y="737" width="100" height="40" as="geometry" />
        </mxCell>
        <mxCell id="txIvp467pYTbu5o106aA-48" style="rounded=0;orthogonalLoop=1;jettySize=auto;html=1;entryX=1;entryY=1;entryDx=0;entryDy=0;endArrow=none;startFill=0;labelBackgroundColor=none;strokeColor=#23445D;fontColor=default;" parent="1" source="txIvp467pYTbu5o106aA-42" target="txIvp467pYTbu5o106aA-41" edge="1">
          <mxGeometry relative="1" as="geometry" />
        </mxCell>
        <mxCell id="txIvp467pYTbu5o106aA-42" value="City" style="ellipse;whiteSpace=wrap;html=1;align=center;labelBackgroundColor=none;fillColor=#182E3E;strokeColor=#FFFFFF;fontColor=#FFFFFF;" parent="1" vertex="1">
          <mxGeometry x="501" y="817" width="100" height="40" as="geometry" />
        </mxCell>
        <mxCell id="txIvp467pYTbu5o106aA-47" value="" style="rounded=0;orthogonalLoop=1;jettySize=auto;html=1;endArrow=none;startFill=0;labelBackgroundColor=none;strokeColor=#23445D;fontColor=default;" parent="1" source="txIvp467pYTbu5o106aA-43" target="txIvp467pYTbu5o106aA-41" edge="1">
          <mxGeometry relative="1" as="geometry" />
        </mxCell>
        <mxCell id="txIvp467pYTbu5o106aA-43" value="PNum" style="ellipse;whiteSpace=wrap;html=1;align=center;labelBackgroundColor=none;fillColor=#182E3E;strokeColor=#FFFFFF;fontColor=#FFFFFF;" parent="1" vertex="1">
          <mxGeometry x="401" y="817" width="100" height="40" as="geometry" />
        </mxCell>
        <mxCell id="txIvp467pYTbu5o106aA-46" style="rounded=0;orthogonalLoop=1;jettySize=auto;html=1;entryX=0;entryY=1;entryDx=0;entryDy=0;endArrow=none;startFill=0;labelBackgroundColor=none;strokeColor=#23445D;fontColor=default;" parent="1" source="txIvp467pYTbu5o106aA-44" target="txIvp467pYTbu5o106aA-41" edge="1">
          <mxGeometry relative="1" as="geometry" />
        </mxCell>
        <mxCell id="txIvp467pYTbu5o106aA-44" value="PName" style="ellipse;whiteSpace=wrap;html=1;align=center;labelBackgroundColor=none;fillColor=#182E3E;strokeColor=#FFFFFF;fontColor=#FFFFFF;" parent="1" vertex="1">
          <mxGeometry x="301" y="817" width="100" height="40" as="geometry" />
        </mxCell>
        <mxCell id="txIvp467pYTbu5o106aA-53" value="&lt;div&gt;Work&lt;/div&gt;" style="shape=rhombus;perimeter=rhombusPerimeter;whiteSpace=wrap;html=1;align=center;rounded=0;shadow=0;labelBackgroundColor=none;fillColor=#182E3E;strokeColor=#FFFFFF;fontColor=#FFFFFF;" parent="1" vertex="1">
          <mxGeometry x="341" y="555" width="120" height="60" as="geometry" />
        </mxCell>
        <mxCell id="txIvp467pYTbu5o106aA-57" value="Dependents" style="shape=ext;margin=3;double=1;whiteSpace=wrap;html=1;align=center;labelBackgroundColor=none;fillColor=#182E3E;strokeColor=#FFFFFF;fontColor=#FFFFFF;" parent="1" vertex="1">
          <mxGeometry x="163" y="297" width="100" height="40" as="geometry" />
        </mxCell>
        <mxCell id="txIvp467pYTbu5o106aA-62" value="" style="edgeStyle=orthogonalEdgeStyle;rounded=0;orthogonalLoop=1;jettySize=auto;html=1;endArrow=none;startFill=0;labelBackgroundColor=none;strokeColor=#23445D;fontColor=default;" parent="1" source="txIvp467pYTbu5o106aA-59" target="txIvp467pYTbu5o106aA-57" edge="1">
          <mxGeometry relative="1" as="geometry" />
        </mxCell>
        <mxCell id="txIvp467pYTbu5o106aA-59" value="Gander" style="ellipse;whiteSpace=wrap;html=1;align=center;labelBackgroundColor=none;fillColor=#182E3E;strokeColor=#FFFFFF;fontColor=#FFFFFF;" parent="1" vertex="1">
          <mxGeometry x="163" y="217" width="100" height="40" as="geometry" />
        </mxCell>
        <mxCell id="txIvp467pYTbu5o106aA-64" value="" style="edgeStyle=orthogonalEdgeStyle;rounded=0;orthogonalLoop=1;jettySize=auto;html=1;endArrow=none;startFill=0;labelBackgroundColor=none;strokeColor=#23445D;fontColor=default;" parent="1" source="txIvp467pYTbu5o106aA-60" target="txIvp467pYTbu5o106aA-57" edge="1">
          <mxGeometry relative="1" as="geometry" />
        </mxCell>
        <mxCell id="txIvp467pYTbu5o106aA-60" value="Name" style="ellipse;whiteSpace=wrap;html=1;align=center;fontStyle=4;labelBackgroundColor=none;fillColor=#182E3E;strokeColor=#FFFFFF;fontColor=#FFFFFF;" parent="1" vertex="1">
          <mxGeometry x="3" y="297" width="100" height="40" as="geometry" />
        </mxCell>
        <mxCell id="txIvp467pYTbu5o106aA-63" value="" style="edgeStyle=orthogonalEdgeStyle;rounded=0;orthogonalLoop=1;jettySize=auto;html=1;endArrow=none;startFill=0;labelBackgroundColor=none;strokeColor=#23445D;fontColor=default;" parent="1" source="txIvp467pYTbu5o106aA-61" target="txIvp467pYTbu5o106aA-57" edge="1">
          <mxGeometry relative="1" as="geometry" />
        </mxCell>
        <mxCell id="txIvp467pYTbu5o106aA-61" value="Birth Date" style="ellipse;whiteSpace=wrap;html=1;align=center;labelBackgroundColor=none;fillColor=#182E3E;strokeColor=#FFFFFF;fontColor=#FFFFFF;" parent="1" vertex="1">
          <mxGeometry x="326" y="297" width="100" height="40" as="geometry" />
        </mxCell>
        <mxCell id="txIvp467pYTbu5o106aA-67" value="" style="edgeStyle=entityRelationEdgeStyle;fontSize=12;html=1;endArrow=ERoneToMany;startArrow=ERzeroToMany;rounded=0;exitX=0.5;exitY=1;exitDx=0;exitDy=0;labelBackgroundColor=none;strokeColor=#23445D;fontColor=default;" parent="1" edge="1">
          <mxGeometry width="100" height="100" relative="1" as="geometry">
            <mxPoint x="221" y="337" as="sourcePoint" />
            <mxPoint x="217" y="565" as="targetPoint" />
            <Array as="points">
              <mxPoint x="437.95" y="457" />
              <mxPoint x="462.65" y="497" />
              <mxPoint x="437.95" y="537" />
              <mxPoint x="442.95" y="497" />
              <mxPoint x="442.95" y="407" />
            </Array>
          </mxGeometry>
        </mxCell>
        <mxCell id="txIvp467pYTbu5o106aA-68" value="Mange" style="shape=rhombus;perimeter=rhombusPerimeter;whiteSpace=wrap;html=1;align=center;labelBackgroundColor=none;fillColor=#182E3E;strokeColor=#FFFFFF;fontColor=#FFFFFF;" parent="1" vertex="1">
          <mxGeometry x="426" y="485" width="120" height="60" as="geometry" />
        </mxCell>
        <mxCell id="txIvp467pYTbu5o106aA-72" value="" style="edgeStyle=orthogonalEdgeStyle;rounded=0;orthogonalLoop=1;jettySize=auto;html=1;endArrow=none;startFill=0;labelBackgroundColor=none;strokeColor=#23445D;fontColor=default;" parent="1" source="txIvp467pYTbu5o106aA-71" target="txIvp467pYTbu5o106aA-68" edge="1">
          <mxGeometry relative="1" as="geometry" />
        </mxCell>
        <mxCell id="txIvp467pYTbu5o106aA-71" value="Hiring&lt;span style=&quot;background-color: transparent; color: light-dark(rgb(255, 255, 255), rgb(18, 18, 18));&quot;&gt;Date&lt;/span&gt;" style="ellipse;whiteSpace=wrap;html=1;align=center;labelBackgroundColor=none;fillColor=#182E3E;strokeColor=#FFFFFF;fontColor=#FFFFFF;" parent="1" vertex="1">
          <mxGeometry x="436" y="397" width="100" height="40" as="geometry" />
        </mxCell>
        <mxCell id="txIvp467pYTbu5o106aA-73" value="" style="edgeStyle=entityRelationEdgeStyle;fontSize=12;html=1;endArrow=ERone;endFill=1;rounded=0;entryX=1;entryY=0;entryDx=0;entryDy=0;exitX=0;exitY=0.5;exitDx=0;exitDy=0;labelBackgroundColor=none;strokeColor=#23445D;fontColor=default;" parent="1" source="txIvp467pYTbu5o106aA-68" target="txIvp467pYTbu5o106aA-1" edge="1">
          <mxGeometry width="100" height="100" relative="1" as="geometry">
            <mxPoint x="326" y="615" as="sourcePoint" />
            <mxPoint x="426" y="515" as="targetPoint" />
            <Array as="points">
              <mxPoint x="421" y="517" />
            </Array>
          </mxGeometry>
        </mxCell>
        <mxCell id="txIvp467pYTbu5o106aA-74" value="" style="edgeStyle=entityRelationEdgeStyle;fontSize=12;html=1;endArrow=ERone;endFill=1;rounded=0;entryX=0;entryY=0;entryDx=0;entryDy=0;exitX=1;exitY=0.5;exitDx=0;exitDy=0;labelBackgroundColor=none;strokeColor=#23445D;fontColor=default;" parent="1" source="txIvp467pYTbu5o106aA-68" target="txIvp467pYTbu5o106aA-32" edge="1">
          <mxGeometry width="100" height="100" relative="1" as="geometry">
            <mxPoint x="441" y="607" as="sourcePoint" />
            <mxPoint x="541" y="507" as="targetPoint" />
          </mxGeometry>
        </mxCell>
        <mxCell id="txIvp467pYTbu5o106aA-77" value="Have" style="shape=rhombus;perimeter=rhombusPerimeter;whiteSpace=wrap;html=1;align=center;labelBackgroundColor=none;fillColor=#182E3E;strokeColor=#FFFFFF;fontColor=#FFFFFF;" parent="1" vertex="1">
          <mxGeometry x="521" y="667" width="120" height="60" as="geometry" />
        </mxCell>
        <mxCell id="txIvp467pYTbu5o106aA-83" style="rounded=0;orthogonalLoop=1;jettySize=auto;html=1;entryX=0;entryY=0.75;entryDx=0;entryDy=0;endArrow=none;startFill=0;labelBackgroundColor=none;strokeColor=#23445D;fontColor=default;" parent="1" source="txIvp467pYTbu5o106aA-82" target="txIvp467pYTbu5o106aA-1" edge="1">
          <mxGeometry relative="1" as="geometry" />
        </mxCell>
        <mxCell id="txIvp467pYTbu5o106aA-82" value="Supervisor" style="shape=rhombus;perimeter=rhombusPerimeter;whiteSpace=wrap;html=1;align=center;direction=east;labelBackgroundColor=none;fillColor=#182E3E;strokeColor=#FFFFFF;fontColor=#FFFFFF;" parent="1" vertex="1">
          <mxGeometry x="11" y="635" width="120" height="60" as="geometry" />
        </mxCell>
        <mxCell id="txIvp467pYTbu5o106aA-84" style="rounded=0;orthogonalLoop=1;jettySize=auto;html=1;entryX=0.889;entryY=0.448;entryDx=0;entryDy=0;entryPerimeter=0;endArrow=none;startFill=0;labelBackgroundColor=none;strokeColor=#23445D;fontColor=default;" parent="1" source="txIvp467pYTbu5o106aA-1" target="txIvp467pYTbu5o106aA-82" edge="1">
          <mxGeometry relative="1" as="geometry" />
        </mxCell>
        <mxCell id="txIvp467pYTbu5o106aA-93" style="edgeStyle=orthogonalEdgeStyle;rounded=0;orthogonalLoop=1;jettySize=auto;html=1;endArrow=none;startFill=0;labelBackgroundColor=none;strokeColor=#23445D;fontColor=default;" parent="1" source="txIvp467pYTbu5o106aA-91" target="txIvp467pYTbu5o106aA-53" edge="1">
          <mxGeometry relative="1" as="geometry" />
        </mxCell>
        <mxCell id="txIvp467pYTbu5o106aA-91" value="Work Hours" style="ellipse;whiteSpace=wrap;html=1;align=center;labelBackgroundColor=none;fillColor=#182E3E;strokeColor=#FFFFFF;fontColor=#FFFFFF;" parent="1" vertex="1">
          <mxGeometry x="351" y="647" width="100" height="40" as="geometry" />
        </mxCell>
        <mxCell id="MAKRRrA_HPnjvCWwcAYx-3" value="" style="edgeStyle=entityRelationEdgeStyle;fontSize=12;html=1;endArrow=ERoneToMany;rounded=0;exitX=0;exitY=0.5;exitDx=0;exitDy=0;entryX=1;entryY=0.425;entryDx=0;entryDy=0;entryPerimeter=0;labelBackgroundColor=none;strokeColor=#23445D;fontColor=default;" parent="1" source="txIvp467pYTbu5o106aA-53" target="txIvp467pYTbu5o106aA-1" edge="1">
          <mxGeometry width="100" height="100" relative="1" as="geometry">
            <mxPoint x="339.2" y="585" as="sourcePoint" />
            <mxPoint x="262.8" y="579.4399999999999" as="targetPoint" />
            <Array as="points">
              <mxPoint x="299.7" y="617" />
              <mxPoint x="364.7" y="729.6" />
              <mxPoint x="279.7" y="617" />
            </Array>
          </mxGeometry>
        </mxCell>
        <mxCell id="MAKRRrA_HPnjvCWwcAYx-4" value="" style="edgeStyle=entityRelationEdgeStyle;fontSize=12;html=1;endArrow=ERzeroToMany;endFill=1;rounded=0;exitX=1;exitY=0.5;exitDx=0;exitDy=0;labelBackgroundColor=none;strokeColor=#23445D;fontColor=default;" parent="1" source="txIvp467pYTbu5o106aA-53" edge="1">
          <mxGeometry width="100" height="100" relative="1" as="geometry">
            <mxPoint x="461" y="592" as="sourcePoint" />
            <mxPoint x="491" y="737" as="targetPoint" />
            <Array as="points">
              <mxPoint x="391" y="717" />
            </Array>
          </mxGeometry>
        </mxCell>
        <mxCell id="MAKRRrA_HPnjvCWwcAYx-8" value="" style="edgeStyle=entityRelationEdgeStyle;fontSize=12;html=1;endArrow=ERzeroToOne;endFill=1;rounded=0;exitX=1;exitY=0.5;exitDx=0;exitDy=0;entryX=0;entryY=0.5;entryDx=0;entryDy=0;labelBackgroundColor=none;strokeColor=#23445D;fontColor=default;" parent="1" source="txIvp467pYTbu5o106aA-53" target="txIvp467pYTbu5o106aA-32" edge="1">
          <mxGeometry width="100" height="100" relative="1" as="geometry">
            <mxPoint x="411" y="650" as="sourcePoint" />
            <mxPoint x="611" y="580" as="targetPoint" />
          </mxGeometry>
        </mxCell>
        <mxCell id="MAKRRrA_HPnjvCWwcAYx-9" value="" style="fontSize=12;html=1;endArrow=ERoneToMany;rounded=0;entryX=1;entryY=0.5;entryDx=0;entryDy=0;exitX=0;exitY=0.5;exitDx=0;exitDy=0;labelBackgroundColor=none;strokeColor=#23445D;fontColor=default;" parent="1" source="txIvp467pYTbu5o106aA-77" target="txIvp467pYTbu5o106aA-41" edge="1">
          <mxGeometry width="100" height="100" relative="1" as="geometry">
            <mxPoint x="281" y="810" as="sourcePoint" />
            <mxPoint x="381" y="710" as="targetPoint" />
          </mxGeometry>
        </mxCell>
        <mxCell id="MAKRRrA_HPnjvCWwcAYx-11" value="" style="fontSize=12;html=1;endArrow=ERmandOne;rounded=0;entryX=0;entryY=1;entryDx=0;entryDy=0;exitX=0.5;exitY=0;exitDx=0;exitDy=0;labelBackgroundColor=none;strokeColor=#23445D;fontColor=default;" parent="1" source="txIvp467pYTbu5o106aA-77" target="txIvp467pYTbu5o106aA-32" edge="1">
          <mxGeometry width="100" height="100" relative="1" as="geometry">
            <mxPoint x="581" y="660" as="sourcePoint" />
            <mxPoint x="646" y="615" as="targetPoint" />
          </mxGeometry>
        </mxCell>
      </root>
    </mxGraphModel>
  </diagram>
</mxfile>
